<svg width="134" height="200" viewBox="0 0 134 200" fill="none" xmlns="http://www.w3.org/2000/svg">
<path d="M55.9273 93.8987C25.6612 93.8987 5.99071 80.9128 0 57.1953L133.333 57.2785V93.8987H55.9273Z" fill="#DDC5DF"/>
<path d="M66.476 44.9891C54.1905 44.9891 43.8145 34.7734 43.8145 22.6859C43.8145 10.5984 54.1989 0 66.476 0C78.7532 0 89.5179 10.1741 89.5179 22.6859C89.5179 35.1977 78.9644 44.9891 66.476 44.9891Z" fill="#DDC5DF"/>
<path d="M0 142.727V106.106H77.406C107.672 106.106 127.343 119.092 133.333 142.81L0 142.727Z" fill="#DDC5DF"/>
<path d="M66.8573 200C54.1492 200 43.8154 189.826 43.8154 177.314C43.8154 164.802 54.3689 155.011 66.8573 155.011C79.3456 155.011 89.5104 165.226 89.5104 177.314C89.5104 189.401 79.1344 200 66.8573 200Z" fill="#DDC5DF"/>
</svg>
