<svg width="300" height="450" viewBox="0 0 300 450" fill="none" xmlns="http://www.w3.org/2000/svg">
<path d="M125.837 211.272C57.7376 211.272 13.4791 182.054 0 128.69L300 128.877V211.272H125.837Z" fill="#7DACC7" fill-opacity="0.2"/>
<path d="M149.571 101.226C121.929 101.226 98.5828 78.2401 98.5828 51.0433C98.5828 23.8464 121.948 0 149.571 0C177.195 0 201.415 22.8918 201.415 51.0433C201.415 79.1947 177.67 101.226 149.571 101.226Z" fill="#7DACC7" fill-opacity="0.2"/>
<path d="M0 321.136V238.74H174.163C242.262 238.74 286.521 267.959 300 321.323L0 321.136Z" fill="#7DACC7" fill-opacity="0.2"/>
<path d="M150.429 450C121.836 450 98.5852 427.108 98.5852 398.957C98.5852 370.805 122.33 348.774 150.429 348.774C178.528 348.774 201.399 371.76 201.399 398.957C201.399 426.154 178.053 450 150.429 450Z" fill="#7DACC7" fill-opacity="0.2"/>
</svg>
