<svg width="167" height="44" viewBox="0 0 167 44" fill="none" xmlns="http://www.w3.org/2000/svg">
<g clip-path="url(#clip0_116_376)">
<path d="M66.6455 8.65234C60.0715 8.65234 54.562 13.2648 54.562 21.477C54.562 29.6892 60.0733 33.9948 66.6977 33.9948C73.3221 33.9948 78.7325 29.534 78.7325 21.477C78.7325 13.4201 73.169 8.65234 66.6473 8.65234H66.6455ZM66.6455 28.7739C63.1568 28.7739 60.5272 26.2917 60.5272 21.4265C60.5272 16.5613 63.1045 13.875 66.6455 13.875C70.1864 13.875 72.7656 16.4584 72.7656 21.4265C72.7656 26.3946 70.1864 28.7739 66.6455 28.7739Z" fill="#FAF8F1"/>
<path d="M94.5189 9.15967L89.1589 26.7467L83.7484 9.15967H78.1362L86.3276 33.4876L83.1937 43.6242H88.8563L91.9415 33.4876L100.133 9.15967H94.5207H94.5189Z" fill="#FAF8F1"/>
<path d="M119.529 29.0774V33.4877H100.819V29.0774L111.842 13.5682H101.275L102.759 9.15975H118.567V13.5682L107.644 29.0774H119.527H119.529ZM110.073 7.23352C111.995 7.23352 113.612 5.61238 113.612 3.68615C113.612 1.75992 111.995 0.0864258 110.073 0.0864258C108.152 0.0864258 106.484 1.70756 106.484 3.68434C106.484 5.66112 108.101 7.23171 110.073 7.23171V7.23352Z" fill="#FAF8F1"/>
<path d="M51.7397 9.15967V35.9211C51.7397 40.7773 49.3209 43.4039 45.7223 43.9997L45.7349 9.15967H51.7415H51.7397ZM40.2614 43.9997C42.1832 43.9997 43.8006 42.3786 43.8006 40.4523C43.8006 38.5261 42.1832 36.8544 40.2614 36.8544C38.3397 36.8544 36.6719 38.4755 36.6719 40.4523C36.6719 42.4291 38.2892 43.9997 40.2614 43.9997Z" fill="#FAF8F1"/>
<path d="M142.88 21.2716C142.88 12.3011 138.177 8.65088 132.262 8.65088C125.737 8.65088 120.782 13.0612 120.782 21.1199C120.782 29.7871 126.295 33.9933 132.767 33.9933C136.862 33.9933 139.948 32.2711 141.819 29.0758L138.379 25.6819C137.417 27.8608 135.245 28.7725 132.867 28.7725C129.48 28.7725 126.697 26.8986 126.243 22.8945H142.878V21.2716H142.88ZM126.344 19.0944C126.951 15.5452 129.379 13.8735 132.313 13.8735C135.247 13.8735 137.52 15.6481 137.772 19.0944H126.344Z" fill="#FAF8F1"/>
<path d="M158.91 8.65268C154.663 8.65268 152.588 10.6313 151.122 13.9241H151.023V9.15997H145.104V33.4879H151.023V21.0315C151.023 19.9411 151.172 18.8507 151.506 17.8127C152.435 14.9098 154.175 13.7706 156.637 13.7706C159.367 13.7706 161.087 15.0885 161.087 18.6359V33.4879H167.004V17.0653C167.004 11.1349 163.465 8.65088 158.913 8.65088L158.91 8.65268Z" fill="#FAF8F1"/>
<path d="M66.6455 8.65234C60.0715 8.65234 54.562 13.2648 54.562 21.477C54.562 29.6892 60.0733 33.9948 66.6977 33.9948C73.3221 33.9948 78.7325 29.534 78.7325 21.477C78.7325 13.4201 73.169 8.65234 66.6473 8.65234H66.6455ZM66.6455 28.7739C63.1568 28.7739 60.5272 26.2917 60.5272 21.4265C60.5272 16.5613 63.1045 13.875 66.6455 13.875C70.1864 13.875 72.7656 16.4584 72.7656 21.4265C72.7656 26.3946 70.1864 28.7739 66.6455 28.7739Z" fill="#EF8F60"/>
<path d="M94.5189 9.15967L89.1589 26.7467L83.7484 9.15967H78.1362L86.3276 33.4876L83.1937 43.6242H88.8563L91.9415 33.4876L100.133 9.15967H94.5207H94.5189Z" fill="#EF8F60"/>
<path d="M119.529 29.0774V33.4877H100.819V29.0774L111.842 13.5682H101.275L102.759 9.15975H118.567V13.5682L107.644 29.0774H119.527H119.529ZM110.073 7.23352C111.995 7.23352 113.612 5.61238 113.612 3.68615C113.612 1.75992 111.995 0.0864258 110.073 0.0864258C108.152 0.0864258 106.484 1.70756 106.484 3.68434C106.484 5.66112 108.101 7.23171 110.073 7.23171V7.23352Z" fill="#EF8F60"/>
<path d="M51.7397 9.15967V35.9211C51.7397 40.7773 49.3209 43.4039 45.7223 43.9997L45.7349 9.15967H51.7415H51.7397ZM40.2614 43.9997C42.1832 43.9997 43.8006 42.3786 43.8006 40.4523C43.8006 38.5261 42.1832 36.8544 40.2614 36.8544C38.3397 36.8544 36.6719 38.4755 36.6719 40.4523C36.6719 42.4291 38.2892 43.9997 40.2614 43.9997Z" fill="#EF8F60"/>
<path d="M142.88 21.2716C142.88 12.3011 138.177 8.65088 132.262 8.65088C125.737 8.65088 120.782 13.0612 120.782 21.1199C120.782 29.7871 126.295 33.9933 132.767 33.9933C136.862 33.9933 139.948 32.2711 141.819 29.0758L138.379 25.6819C137.417 27.8608 135.245 28.7725 132.867 28.7725C129.48 28.7725 126.697 26.8986 126.243 22.8945H142.878V21.2716H142.88ZM126.344 19.0944C126.951 15.5452 129.379 13.8735 132.313 13.8735C135.247 13.8735 137.52 15.6481 137.772 19.0944H126.344Z" fill="#EF8F60"/>
<path d="M158.91 8.65268C154.663 8.65268 152.588 10.6313 151.122 13.9241H151.023V9.15997H145.104V33.4879H151.023V21.0315C151.023 19.9411 151.172 18.8507 151.506 17.8127C152.435 14.9098 154.175 13.7706 156.637 13.7706C159.367 13.7706 161.087 15.0885 161.087 18.6359V33.4879H167.004V17.0653C167.004 11.1349 163.465 8.65088 158.913 8.65088L158.91 8.65268Z" fill="#EF8F60"/>
<path d="M11.9214 20.376C5.46989 20.376 1.27697 17.558 0 12.4111L28.4211 12.4292V20.376H11.9214Z" fill="#EF8F60"/>
<path d="M14.1689 9.76294C11.5501 9.76294 9.33838 7.54606 9.33838 4.92299C9.33838 2.29992 11.5519 0 14.1689 0C16.7859 0 19.0804 2.20785 19.0804 4.92299C19.0804 7.63813 16.8309 9.76294 14.1689 9.76294Z" fill="#EF8F60"/>
<path d="M0 30.9712V23.0244H16.4997C22.9512 23.0244 27.1441 25.8425 28.4211 30.9893L0 30.9712Z" fill="#EF8F60"/>
<path d="M14.2519 43.4006C11.5431 43.4006 9.34033 41.1928 9.34033 38.4776C9.34033 35.7625 11.5899 33.6377 14.2519 33.6377C16.9139 33.6377 19.0806 35.8546 19.0806 38.4776C19.0806 41.1007 16.8689 43.4006 14.2519 43.4006Z" fill="#EF8F60"/>
</g>
<defs>
<clipPath id="clip0_116_376">
<rect width="167" height="44" fill="white"/>
</clipPath>
</defs>
</svg>
